<?xml version="1.0" encoding="iso-8859-1"?>
<!-- Generator: Adobe Illustrator 18.0.0, SVG Export Plug-In . SVG Version: 6.00 Build 0)  -->
<!DOCTYPE svg PUBLIC "-//W3C//DTD SVG 1.1//EN" "http://www.w3.org/Graphics/SVG/1.1/DTD/svg11.dtd">
<svg version="1.1" id="Capa_1" xmlns="http://www.w3.org/2000/svg" xmlns:xlink="http://www.w3.org/1999/xlink" x="0px" y="0px"
	 viewBox="0 0 297 297" style="enable-background:new 0 0 297 297;" xml:space="preserve">
<g>
	<path d="M223.826,220.527v22.44c0,17.177-10.949,32.367-27.244,37.798l-20.517,6.84c-0.632,0.21-1.288,0.315-1.945,0.315
		c-0.656,0-1.313-0.105-1.945-0.315l-20.645-6.882c-16.205-5.402-27.152-20.507-27.243-37.59l-0.061-22.613
		c-0.058,0.012-0.113,0.031-0.171,0.042l-19.73,3.946V297H243.7v-72.492l-19.73-3.946
		C223.922,220.553,223.875,220.537,223.826,220.527z"/>
	<path d="M56.588,272.557c-0.954,4.983-1.941,10.136-3.289,15.529c-0.535,2.144-0.054,4.414,1.305,6.155
		c1.36,1.741,3.446,2.759,5.654,2.759h31.769v-70.032l-0.034,0.007C64.252,232.523,60.529,251.968,56.588,272.557z"/>
	<path d="M294.727,288.086c-1.348-5.393-2.335-10.546-3.289-15.529c-3.941-20.588-7.664-40.034-35.406-45.582l-0.034-0.007V297
		h31.769c2.209,0,4.294-1.018,5.654-2.759C294.781,292.499,295.262,290.23,294.727,288.086z"/>
	<path d="M110.127,57.866h127.769c-12.262-22.74-36.286-38.239-63.882-38.239C146.416,19.626,122.391,35.126,110.127,57.866z"/>
	<path d="M93.582,57.866h2.847c6.836-15.395,18.124-28.383,32.217-37.341c-3.098-4.877-10.178-13.943-22.011-18.168
		C94.208-2.08,79.51-0.246,62.947,7.805C34.192,21.783,32.404,47.129,30.335,76.476c-1.82,25.821-3.847,54.575-28.275,73.846
		c7.556,0.678,17.122,0.999,27.314,0.014c30.245-2.925,51.576-15.454,63.4-37.242c0.357-0.657,0.82-1.216,1.35-1.681h-0.541
		c-3.396,0-6.149-2.753-6.149-6.149V64.015C87.433,60.619,90.186,57.866,93.582,57.866z"/>
	<path d="M229.913,132.926l4.302-21.512H113.813l4.302,21.512c3.491,17.457,13.572,32.51,28.384,42.385l10.294,6.863
		c10.46,6.973,23.979,6.972,34.439,0l10.295-6.863C216.341,165.436,226.422,150.383,229.913,132.926z"/>
	<path d="M105.359,99.116h137.309c3.109,0,5.629-2.52,5.629-5.629V75.792c0-3.108-2.52-5.628-5.629-5.628H105.359
		c-3.109,0-5.629,2.52-5.629,5.628v17.696C99.73,96.596,102.25,99.116,105.359,99.116z"/>
	<path d="M211.528,184.648c-0.427,0.297-10.168,5.714-13.474,7.759c-7.463,4.615-15.672,7.303-24.04,7.303
		c-8.371,0-16.583-2.676-24.042-7.303c-3.287-2.039-12.959-7.462-13.387-7.759v58.438c0.062,11.794,7.631,22.238,18.834,25.972
		l18.701,6.234l18.573-6.192c11.266-3.754,18.835-14.255,18.835-26.131V184.648z"/>
</g>
<g>
</g>
<g>
</g>
<g>
</g>
<g>
</g>
<g>
</g>
<g>
</g>
<g>
</g>
<g>
</g>
<g>
</g>
<g>
</g>
<g>
</g>
<g>
</g>
<g>
</g>
<g>
</g>
<g>
</g>
</svg>
