<?xml version="1.0" encoding="iso-8859-1"?>
<!-- Generator: Adobe Illustrator 16.0.0, SVG Export Plug-In . SVG Version: 6.00 Build 0)  -->
<!DOCTYPE svg PUBLIC "-//W3C//DTD SVG 1.1//EN" "http://www.w3.org/Graphics/SVG/1.1/DTD/svg11.dtd">
<svg xmlns="http://www.w3.org/2000/svg" xmlns:xlink="http://www.w3.org/1999/xlink" version="1.1" id="Capa_1" x="0px" y="0px" width="512px" height="512px" viewBox="0 0 61.806 61.806" style="enable-background:new 0 0 61.806 61.806;" xml:space="preserve">
<g>
	<g>
		<path d="M23.641,25.45c-0.93,8.202,0.592,11.076,2.114,15.134c1.521,4.059,1.183,4.819-0.592,7.609    c-1.56,2.45-1.487,3.141-0.187,4.132h-0.001l0.44,7.261h0.909l0.163-6.098c1.195,1.118,1.758,2.489,2.31,4.766    c0.676,2.792,0.084,3.552,3.636,3.552c3.55,0,8.962,0,8.962,0c2.536-1.438-2.114-2.367-3.806-3.805    c-1.69-1.438-3.466-7.948-3.466-16.911s0-21.898-0.085-29.254C33.956,4.48,32.856,0,32.856,0s-7.524-0.084-9.468,3.213    c-1.945,3.298-3.72,4.481-3.72,4.481C24.234,12.429,24.571,17.248,23.641,25.45z" fill="#FFFFFF"/>
	</g>
</g>
<g>
</g>
<g>
</g>
<g>
</g>
<g>
</g>
<g>
</g>
<g>
</g>
<g>
</g>
<g>
</g>
<g>
</g>
<g>
</g>
<g>
</g>
<g>
</g>
<g>
</g>
<g>
</g>
<g>
</g>
</svg>
